<svg width="97" height="29" viewBox="0 0 97 29" fill="none" xmlns="http://www.w3.org/2000/svg">
<path d="M14.5627 0C6.55382 0 0.0531006 6.49254 0.0531006 14.4913C0.0531006 22.5074 6.55382 28.9826 14.5627 28.9826C22.589 28.9826 29.0724 22.4902 29.0724 14.4913C29.0896 6.49254 22.589 0 14.5627 0ZM21.2194 20.9146C20.9594 21.3474 20.4046 21.4686 19.9713 21.209C16.5563 19.1313 12.2745 18.6639 7.21256 19.8066C6.72718 19.9104 6.24178 19.6161 6.13778 19.1313C6.03376 18.6466 6.32846 18.1618 6.81384 18.0579C12.3438 16.794 17.0936 17.3307 20.9074 19.6681C21.3582 19.9278 21.4968 20.4818 21.2194 20.9146ZM23.005 16.9672C22.6756 17.5039 21.9822 17.6597 21.4448 17.3481C17.5444 14.9415 11.5984 14.249 6.9872 15.6513C6.38046 15.8245 5.7564 15.4955 5.58304 14.9069C5.4097 14.3009 5.73906 13.6776 6.3458 13.5045C11.6157 11.9116 18.1684 12.6734 22.6582 15.4263C23.161 15.7379 23.3344 16.4304 23.005 16.9672ZM23.161 12.8466C18.4805 10.0764 10.7663 9.81672 6.2938 11.1672C5.58304 11.3922 4.8203 10.9767 4.59494 10.2669C4.36958 9.55702 4.78562 8.79522 5.49638 8.57014C10.6276 7.01194 19.1565 7.32358 24.5304 10.5093C25.1718 10.8901 25.38 11.7212 24.9986 12.3618C24.6344 13.0197 23.8024 13.2275 23.161 12.8466Z" fill="#1ED760"/>
<path d="M39.5429 13.3833C37.0293 12.7946 36.5959 12.3618 36.5959 11.4788C36.5959 10.6477 37.3761 10.0937 38.5375 10.0937C39.6643 10.0937 40.7911 10.5265 41.9699 11.3922C42.0045 11.4268 42.0565 11.4268 42.0913 11.4268C42.1433 11.4268 42.1779 11.3922 42.1953 11.3576L43.4261 9.62623C43.4781 9.55699 43.4607 9.45311 43.3913 9.40117C41.9871 8.27579 40.4097 7.73907 38.5721 7.73907C35.8679 7.73907 33.9783 9.36653 33.9783 11.6865C33.9783 14.1797 35.6079 15.0627 38.4335 15.7379C40.8257 16.2919 41.2417 16.7594 41.2417 17.5731C41.2417 18.4907 40.4271 19.0621 39.1095 19.0621C37.6533 19.0621 36.4573 18.5773 35.1225 17.4173C35.0877 17.3827 35.0357 17.3827 35.0011 17.3827C34.9491 17.3827 34.9145 17.4 34.8971 17.4346L33.5275 19.0621C33.4755 19.1313 33.4755 19.2352 33.5449 19.2871C35.1051 20.6722 37.0119 21.3994 39.0749 21.3994C41.9871 21.3994 43.8767 19.8065 43.8767 17.348C43.8421 15.2704 42.6113 14.1277 39.5429 13.3833Z" fill="#1ED760"/>
<path d="M50.447 10.9078C49.1816 10.9078 48.1414 11.4099 47.292 12.4314V11.2887C47.292 11.2021 47.2226 11.1329 47.136 11.1329H44.8998C44.813 11.1329 44.7438 11.2021 44.7438 11.2887V24.0314C44.7438 24.118 44.813 24.1872 44.8998 24.1872H47.136C47.2226 24.1872 47.292 24.118 47.292 24.0314V20.0146C48.1414 20.967 49.1816 21.4344 50.447 21.4344C52.7874 21.4344 55.1796 19.6338 55.1796 16.1711C55.1796 12.7257 52.7874 10.9078 50.447 10.9078ZM52.562 16.1711C52.562 17.937 51.4698 19.149 49.927 19.149C48.3842 19.149 47.24 17.8678 47.24 16.1711C47.24 14.4744 48.4014 13.1932 49.927 13.1932C51.4524 13.1932 52.562 14.4397 52.562 16.1711Z" fill="#1ED760"/>
<path d="M61.2646 10.9078C58.2484 10.9078 55.8734 13.2451 55.8734 16.2057C55.8734 19.149 58.231 21.4516 61.23 21.4516C64.2636 21.4516 66.6386 19.1317 66.6386 16.1711C66.6386 13.2278 64.281 10.9078 61.2646 10.9078ZM61.2646 19.1836C59.6526 19.1836 58.439 17.8851 58.439 16.1884C58.439 14.4744 59.6178 13.2278 61.23 13.2278C62.8422 13.2278 64.073 14.5263 64.073 16.2403C64.073 17.937 62.8942 19.1836 61.2646 19.1836Z" fill="#1ED760"/>
<path d="M73.1048 11.1147H70.6432V8.60425C70.6432 8.51769 70.5738 8.44843 70.4872 8.44843H68.2508C68.1642 8.44843 68.0948 8.51769 68.0948 8.60425V11.132H67.02C66.9334 11.132 66.864 11.2013 66.864 11.2878V13.2096C66.864 13.2962 66.9334 13.3654 67.02 13.3654H68.0948V18.3517C68.0948 20.36 69.1004 21.3816 71.0766 21.3816C71.874 21.3816 72.55 21.2084 73.174 20.8622C73.226 20.8276 73.2608 20.7756 73.2608 20.7236V18.8884C73.2608 18.8365 73.226 18.7845 73.1914 18.7499C73.1394 18.7153 73.0874 18.7153 73.0354 18.7499C72.602 18.975 72.186 19.0616 71.718 19.0616C70.9898 19.0616 70.6778 18.7326 70.6778 18.0054V13.3827H73.1394C73.2262 13.3827 73.2954 13.3135 73.2954 13.2269V11.2878C73.2608 11.2013 73.1914 11.1147 73.1048 11.1147Z" fill="#1ED760"/>
<path d="M81.7025 11.1328V10.8211C81.7025 9.90352 82.0493 9.5053 82.8293 9.5053C83.2975 9.5053 83.6787 9.59188 84.0949 9.73038C84.1469 9.7477 84.1989 9.73038 84.2509 9.71306C84.2855 9.67844 84.3201 9.6265 84.3201 9.57456V7.6874C84.3201 7.61814 84.2681 7.54888 84.1989 7.53158C83.7481 7.39306 83.1935 7.27188 82.3267 7.27188C80.2465 7.27188 79.1543 8.43188 79.1543 10.648V11.1155H78.0795C77.9929 11.1155 77.9061 11.1847 77.9061 11.2713V13.2104C77.9061 13.2969 77.9755 13.3662 78.0795 13.3662H79.1543V21.0534C79.1543 21.14 79.2237 21.2092 79.3103 21.2092H81.5465C81.6333 21.2092 81.7025 21.14 81.7025 21.0534V13.3835H83.8001L87.0071 21.0706C86.6431 21.8844 86.2791 22.0402 85.7937 22.0402C85.3949 22.0402 84.9789 21.919 84.5629 21.694C84.5283 21.6766 84.4763 21.6766 84.4243 21.6766C84.3895 21.694 84.3375 21.7286 84.3201 21.7632L83.5575 23.4254C83.5227 23.5118 83.5575 23.5984 83.6267 23.633C84.4243 24.066 85.1349 24.239 86.0191 24.239C87.6833 24.239 88.5847 23.46 89.3995 21.3996L93.2999 11.3578C93.3171 11.3059 93.3171 11.254 93.2825 11.202C93.2479 11.1501 93.1959 11.1328 93.1439 11.1328H90.8035C90.7343 11.1328 90.6649 11.1847 90.6475 11.2367L88.2553 18.0581L85.6897 11.2367C85.6723 11.1674 85.6031 11.1328 85.5337 11.1328H81.7025Z" fill="#1ED760"/>
<path d="M76.7266 11.1156H74.4904C74.4038 11.1156 74.3344 11.1849 74.3344 11.2715V21.0536C74.3344 21.1402 74.4038 21.2094 74.4904 21.2094H76.7266C76.8134 21.2094 76.8826 21.1402 76.8826 21.0536V11.2888C76.8826 11.2022 76.8134 11.1156 76.7266 11.1156Z" fill="#1ED760"/>
<path d="M75.5995 6.66562C74.7155 6.66562 73.9875 7.39278 73.9875 8.27578C73.9875 9.15876 74.7155 9.88592 75.5995 9.88592C76.4837 9.88592 77.2117 9.15876 77.2117 8.27578C77.2117 7.39278 76.5011 6.66562 75.5995 6.66562Z" fill="#1ED760"/>
<path d="M95.276 14.2668C94.3918 14.2668 93.6984 13.557 93.6984 12.6913C93.6984 11.8256 94.3918 11.0984 95.2932 11.0984C96.1774 11.0984 96.8708 11.8083 96.8708 12.674C96.8534 13.5397 96.16 14.2668 95.276 14.2668ZM95.276 11.2543C94.4612 11.2543 93.8544 11.8949 93.8544 12.6913C93.8544 13.4704 94.4612 14.111 95.276 14.111C96.0906 14.111 96.6974 13.4704 96.6974 12.674C96.6974 11.8949 96.0906 11.2543 95.276 11.2543ZM95.6226 12.8471L96.0734 13.4704H95.692L95.2932 12.8991H94.9466V13.4704H94.6346V11.8083H95.38C95.7614 11.8083 96.0214 11.9987 96.0214 12.345C96.0214 12.6047 95.848 12.7778 95.6226 12.8471ZM95.3626 12.1026H94.9466V12.622H95.3626C95.5706 12.622 95.692 12.5181 95.692 12.3623C95.692 12.1892 95.5706 12.1026 95.3626 12.1026Z" fill="#1ED760"/>
</svg>
