<svg width="707" height="20" viewBox="0 0 707 20" fill="none" xmlns="http://www.w3.org/2000/svg">
<path opacity="0.3" d="M39 11L665 11" stroke="white" stroke-width="6" stroke-linecap="round"/>
<path d="M39 11L214 11" stroke="white" stroke-width="6" stroke-linecap="round"/>
<path d="M3.97338 15H2.62938V7.748H0.431383V6.782C1.69138 6.754 2.55938 6.054 2.76938 5.074H3.97338V15ZM6.00995 14.104C6.00995 13.558 6.42995 13.124 6.97595 13.124C7.52195 13.124 7.95595 13.558 7.95595 14.104C7.95595 14.65 7.52195 15.07 6.97595 15.07C6.42995 15.07 6.00995 14.65 6.00995 14.104ZM5.99595 9.176C5.99595 8.63 6.41595 8.196 6.96195 8.196C7.50795 8.196 7.94195 8.63 7.94195 9.176C7.94195 9.722 7.50795 10.142 6.96195 10.142C6.41595 10.142 5.99595 9.722 5.99595 9.176ZM9.68309 10.044C9.68309 7.692 10.4811 4.892 13.5191 4.892C16.5571 4.892 17.3551 7.692 17.3551 10.044C17.3551 12.368 16.5851 15.182 13.5191 15.182C10.4671 15.182 9.68309 12.354 9.68309 10.044ZM15.9971 10.044C15.9971 8.056 15.4651 6.124 13.5191 6.124C11.5591 6.124 11.0551 8.042 11.0551 10.044C11.0551 12.032 11.5731 13.964 13.5191 13.964C15.4651 13.964 15.9971 12.032 15.9971 10.044ZM20.1719 10.114C20.5639 9.176 21.5859 8.462 23.0139 8.462C24.9039 8.462 26.2619 9.806 26.2619 11.794C26.2619 13.782 24.6659 15.182 22.6779 15.182C20.5079 15.182 18.8699 13.53 18.8699 10.632C18.8699 6.866 21.1099 4.892 23.9659 4.892C24.8899 4.892 25.6179 5.116 26.0659 5.41L25.6739 6.558C25.2399 6.32 24.6379 6.11 23.8959 6.11C21.5999 6.11 20.3259 7.832 20.1719 10.114ZM20.4379 11.822C20.4379 13.124 21.4739 14.006 22.6639 14.006C23.8959 14.006 24.9179 13.138 24.9179 11.822C24.9179 10.464 23.9379 9.624 22.6919 9.624C21.4459 9.624 20.4379 10.534 20.4379 11.822Z" fill="#BDBDBD"/>
<path d="M679.217 10.114C679.609 9.176 680.631 8.462 682.059 8.462C683.949 8.462 685.307 9.806 685.307 11.794C685.307 13.782 683.711 15.182 681.723 15.182C679.553 15.182 677.915 13.53 677.915 10.632C677.915 6.866 680.155 4.892 683.011 4.892C683.935 4.892 684.663 5.116 685.111 5.41L684.719 6.558C684.285 6.32 683.683 6.11 682.941 6.11C680.645 6.11 679.371 7.832 679.217 10.114ZM679.483 11.822C679.483 13.124 680.519 14.006 681.709 14.006C682.941 14.006 683.963 13.138 683.963 11.822C683.963 10.464 682.983 9.624 681.737 9.624C680.491 9.624 679.483 10.534 679.483 11.822ZM686.944 14.104C686.944 13.558 687.364 13.124 687.91 13.124C688.456 13.124 688.89 13.558 688.89 14.104C688.89 14.65 688.456 15.07 687.91 15.07C687.364 15.07 686.944 14.65 686.944 14.104ZM686.93 9.176C686.93 8.63 687.35 8.196 687.896 8.196C688.442 8.196 688.876 8.63 688.876 9.176C688.876 9.722 688.442 10.142 687.896 10.142C687.35 10.142 686.93 9.722 686.93 9.176ZM690.281 12.774V11.22L694.649 5.074H696.385V11.5H698.093V12.774H696.385V15H695.041V12.774H690.281ZM695.041 11.5V6.572L691.569 11.5H695.041ZM706.088 15H699.256C699.284 13.53 699.802 12.144 701.37 11.192L703.176 10.058C704.142 9.442 704.646 8.812 704.646 7.93C704.646 6.922 703.918 6.096 702.742 6.096C701.44 6.096 700.614 6.95 700.614 8.238C700.614 8.392 700.628 8.574 700.67 8.756L699.368 8.7C699.34 8.546 699.312 8.266 699.312 8.084C699.312 6.362 700.544 4.892 702.7 4.892C704.772 4.892 705.99 6.25 705.99 7.902C705.99 9.176 705.248 10.17 704.086 10.898L702.042 12.158C701.468 12.522 701.034 13.096 700.894 13.74H706.088V15Z" fill="#BDBDBD"/>
</svg>
